<svg aria-hidden="true" style="position:absolute;width:0;height:0;overflow:hidden" xmlns="http://www.w3.org/2000/svg">
    <defs>
        <symbol id="antenna" viewBox="0 0 32 32">
            <path fill="#212121" style="fill:var(--color1, #212121)" d="m30.773 22.098-8.443-8.505.937-4.616c.225.09.485.144.758.146h.033a2.16 2.16 0 1 0-2.029-1.42l-.005-.015-4.96.606L8.973.161a.53.53 0 0 0-.376-.16.531.531 0 0 0-.373.155L6.712 1.66a.535.535 0 0 0 0 .754l.814.825C6.383 5.301 5.71 7.761 5.71 10.378c0 4.106 1.656 7.824 4.336 10.525l-.001-.001a.49.49 0 0 0 .146.097 2.986 2.986 0 0 0-.052.546v6.188h-6.4a2.669 2.669 0 0 0-2.667 2.666v1.067c0 .295.239.534.534.534H26.14a.534.534 0 0 0 .533-.534v-1.067a2.67 2.67 0 0 0-2.666-2.666h-6.4v-2.742a14.784 14.784 0 0 0 10.166-1.502l-.077.039.818.823a.534.534 0 0 0 .376.16.536.536 0 0 0 .373-.155l1.512-1.504a.535.535 0 0 0 0-.754zM23.28 6.233a1.067 1.067 0 1 1 .752 1.822h-.004a1.066 1.066 0 0 1-.747-1.822h-.002zm-1.256 3.504-.598 2.946-1.175-1.183 1.774-1.763zm-.605-.902-1.92 1.909-1.486-1.493 3.406-.416zM24.004 28.8a1.6 1.6 0 0 1 1.6 1.6v.534H2.138V30.4a1.6 1.6 0 0 1 1.6-1.6h20.267zm-7.466-2.134v1.067h-5.334v-1.067h5.334zM11.204 25.6v-4.053c0-1.294 1.196-2.346 2.667-2.346s2.667 1.053 2.667 2.346V25.6h-5.334zm6.4-1.696v-2.357c0-1.882-1.675-3.413-3.733-3.413h-.058c-1.353 0-2.54.707-3.213 1.771l-.009.016a13.817 13.817 0 0 1-3.812-9.55c0-2.314.567-4.496 1.569-6.414l-.036.077 18.602 18.709c-1.823.947-3.979 1.502-6.266 1.502-1.079 0-2.128-.124-3.136-.357l.093.018zm11.289-.684L7.836 2.039l.754-.752 7.935 7.98c.004 0 .006.007.01.01l13.114 13.191-.757.752z"/>
            <path fill="#2196f3" style="fill:var(--color2, #2196f3)" d="M13.876 20.267h-.007a1.6 1.6 0 0 0-.003 3.2h.007a1.6 1.6 0 0 0 .002-3.2zm.373 1.978a.534.534 0 1 1-.378-.912.533.533 0 0 1 .374.911h.005z"/>
        </symbol>
        <symbol id="astronaut" viewBox="0 0 32 32">
            <path fill="#2196f3" style="fill:var(--color2, #2196f3)" d="M31.974 4.524a.535.535 0 0 0-.427-.362h-.003l-1.911-.278-.855-1.731c-.179-.365-.777-.365-.956 0l-.855 1.731-1.911.278a.534.534 0 0 0-.296.91l1.383 1.348-.326 1.903a.532.532 0 0 0 .774.562l1.709-.899 1.709.899a.534.534 0 0 0 .773-.565v.003l-.326-1.903 1.383-1.348a.535.535 0 0 0 .134-.55l.001.004zm-2.463 1.327a.53.53 0 0 0-.153.472l.191 1.114-1-.526a.525.525 0 0 0-.501.001l.003-.001-1 .526.191-1.114a.53.53 0 0 0-.152-.472l-.811-.79 1.119-.162a.532.532 0 0 0 .402-.292l.5-1.013.5 1.013a.532.532 0 0 0 .402.292l1.119.162-.809.79zm-3.377 14.671h-1.067v1.067h1.067v-1.067zm0 2.134h-1.067v1.066h1.067v-1.066zm1.066-1.067h-1.067v1.067H27.2v-1.067zm-2.133 0H24v1.067h1.067v-1.067zm-2.667 4.8h-1.067v1.067H22.4v-1.067zm0 2.134h-1.067v1.067H22.4v-1.067zm1.067-1.067H22.4v1.067h1.067v-1.067zm-2.133 0h-1.067v1.067h1.067v-1.067zM16 24.256h-1.066v1.067H16v-1.067zm0 2.133h-1.066v1.067H16v-1.067zm1.067-1.067H16v1.067h1.067v-1.067zm-2.133 0h-1.067v1.067h1.067v-1.067zm-9.067-19.2H4.801v1.066h1.066V6.122zm0 2.134H4.801v1.066h1.066V8.256zm1.066-1.067H5.866v1.067h1.066V7.189zm-2.133 0H3.733v1.067H4.8V7.189z"/>
            <path fill="#212121" style="fill:var(--color1, #212121)" d="M24.715 14.16a1.774 1.774 0 0 0-1.179-.703l-.009-.001a1.769 1.769 0 0 0-1.344.355l.004-.003-1.253.96-1.898 1.417-1.358-.541c2.421-1.086 4.113-3.508 4.113-6.32 0-3.823-3.122-6.934-6.961-6.934S7.869 5.5 7.869 9.324c0 1.386.415 2.674 1.12 3.759l-2.768-.024c-.009 0-.016.005-.023.005a.511.511 0 0 0-.159.033l.004-.001c-.013.005-.026.007-.038.013-.006.003-.013.003-.019.006l-3.233 1.596-.001.001-1.893.91a.5.5 0 0 0-.065.036l.001-.001a1.782 1.782 0 0 0-.594 2.306l-.005-.01c.22.424.592.742 1.043.885l.013.003a1.772 1.772 0 0 0 1.388-.133l-.009.005 1.388-.738 2.264-1.169 1.357-.008-5.442 5.415-.001.001-1.339 1.333a1.643 1.643 0 0 0-.491 1.173v.005a1.668 1.668 0 0 0 1.667 1.664h.002a1.67 1.67 0 0 0 1.18-.485l1.314-1.309 1.741-1.3.901.897L4.07 27.28a1.643 1.643 0 0 0-.491 1.173v.004a1.662 1.662 0 0 0 1.666 1.664h.003a1.67 1.67 0 0 0 1.18-.485l4.488-4.472c.007-.006.016-.009.022-.016l5.166-5.658 3.471.494a.474.474 0 0 0 .262-.032c.017-.006.032-.015.049-.023.019-.01.039-.015.058-.027l3.213-2.133c.012-.008.018-.021.029-.03.013-.01.029-.014.041-.026l1.271-1.191c.348-.326.564-.787.564-1.3 0-.4-.132-.769-.355-1.066l.003.005zM2.13 17.77a.706.706 0 0 1-.564.05l.005.001a.717.717 0 0 1-.215-1.258l.002-.001 1.314-.632.316.924.133.389-.992.527zm3.497-1.828-1.548.8-.255-.746-.184-.537 2.027-1.001-.04 1.484zm15.1-6.62c0 .918-.219 1.785-.599 2.56l-4.181-1.899a1.865 1.865 0 0 0-.782-1.384l-.006-.004 1.464-4.861c2.377.757 4.104 2.975 4.104 5.588zm-11.789 0c0-3.235 2.644-5.867 5.894-5.867.253 0 .5.022.745.053l-1.432 4.753c-.019 0-.037-.006-.057-.006h-.001a1.872 1.872 0 0 0-1.872 1.867 1.873 1.873 0 0 0 1.872 1.867h.001c.695 0 1.295-.383 1.618-.944l3.863 1.755a5.891 5.891 0 0 1-4.737 2.39c-3.25 0-5.894-2.632-5.894-5.867zm5.957.8a.805.805 0 0 1-.805.8h-.003a.804.804 0 0 1-.804-.8c0-.441.361-.8.806-.8s.806.359.806.8zM2.464 25.146a.606.606 0 0 1-.855.001.591.591 0 0 1 0-.844l.962-.959.852.848-.959.954zm3.214 3.734a.606.606 0 0 1-.855.001.591.591 0 0 1 0-.844l.963-.959.852.848-.96.955zm3.482-3.469-.001.001-1.765 1.76-.852-.848 1.765-1.757a.527.527 0 0 0 .09-.136c.007-.014.02-.026.026-.04.016-.041.019-.085.026-.128.003-.025.014-.048.014-.073 0-.035-.013-.07-.02-.105-.006-.032-.006-.064-.019-.096a.536.536 0 0 0-.092-.138c-.01-.012-.014-.026-.025-.038h-.001l-.001-.002-1.607-1.6c-.017-.017-.039-.024-.058-.038a.491.491 0 0 0-.084-.056l-.003-.001a.527.527 0 0 0-.09-.031l-.003-.001a.502.502 0 0 0-.101-.02h-.025a.603.603 0 0 0-.075.005h.003c-.036.005-.069.009-.104.021s-.064.027-.094.045c-.02.011-.043.015-.061.029l-1.774 1.324-.901-.897 2.399-2.386 4.36 4.289-.928.919zm6.819-7.017c-.016-.002-.03.004-.046.003l-.027-.001a.562.562 0 0 0-.092.008h.003a.484.484 0 0 0-.187.07l.002-.001a.492.492 0 0 0-.083.061c-.013.011-.028.016-.04.029l-4.698 5.146-4.328-4.256 2.833-2.818a.535.535 0 0 0-.378-.911h-.002l-2.219.013.028-1.607 3.104.027a6.928 6.928 0 0 0 4.978 2.101h.003c.438 0 .864-.046 1.28-.122.04.032.08.064.129.085l2.41.96.152.758.178.886-3.003-.427zm4.041.178-.313-1.558 1.446-1.08.946 1.257-2.08 1.381zm3.753-2.831-.837.785-.931-1.236.831-.637a.735.735 0 0 1 .543-.143.718.718 0 0 1 .621.71.71.71 0 0 1-.226.521z"/>
            <path fill="#212121" style="fill:var(--color1, #212121)" d="m13.602 18.544-2.143-2.134a.53.53 0 0 0-.752 0l-2.143 2.133a.535.535 0 0 0 0 .756l2.142 2.134a.53.53 0 0 0 .752 0l2.143-2.134a.532.532 0 0 0 0-.756zm-2.519 1.759-1.387-1.381 1.386-1.381 1.387 1.381-1.387 1.381zm6.081-15.232-.258 1.036c.071.018 1.738.452 1.738 2.149h1.067c0-2.017-1.666-2.965-2.547-3.184zm2.547 4.251h-1.067v1.066h1.067V9.322z"/>
        </symbol>
        <symbol id="client-1" viewBox="0 0 32 32">
            <path fill="#afb1b8" style="fill:var(--color3, #afb1b8)" d="m11.472 9.057 2.116 2.003-3.927-.002v9.717h10.264V17.06l2.113 2.001V9.058H11.472zm8.36 7.767-5.998-5.678h5.998v5.678zm-1.863 2.528h-6.685v-6.535h.472v6.092h6.212v.442zm-5.106 2.716-.247.509-.247-.509h-.207l.36.678v.395h.187v-.395l.36-.678h-.206zm.311 1.073.087-.25h.416l.088.25h.195l-.406-1.073h-.168l-.405 1.073h.194zm.294-.845.155.445h-.311l.155-.445zm.984.419a.243.243 0 0 0-.04.134v.002c0 .091.032.164.095.22s.149.084.255.084a.445.445 0 0 0 .274-.086l.06.072h.208l-.158-.187a.537.537 0 0 0 .093-.325h-.155a.43.43 0 0 1-.045.197l-.207-.245.073-.053a.388.388 0 0 0 .11-.111l.001-.001a.238.238 0 0 0 .034-.122v-.006a.222.222 0 0 0-.075-.166.27.27 0 0 0-.181-.07h-.011.001c-.086 0-.155.025-.206.074s-.077.115-.077.199c0 .034.008.07.024.107s.046.081.088.134a.638.638 0 0 0-.16.148zm.484.237a.27.27 0 0 1-.169.06h-.009a.178.178 0 0 1-.12-.047.16.16 0 0 1-.048-.115v-.006c0-.057.03-.109.088-.153l.023-.016.234.277zm-.192-.475c-.051-.063-.076-.114-.076-.155 0-.036.011-.066.031-.089a.105.105 0 0 1 .079-.036h.009c.03 0 .056.012.076.03.021.02.032.044.032.072v.004c0 .04-.018.076-.046.1l-.023.018-.082.056zm1.746.583a.388.388 0 0 0 .127-.268h-.186c-.01.077-.033.131-.07.164s-.092.049-.165.049c-.08 0-.141-.03-.183-.091s-.062-.149-.062-.266v-.095c.001-.115.023-.201.066-.26s.106-.089.187-.089c.07 0 .123.017.159.051s.059.09.068.167h.186c-.012-.117-.054-.208-.126-.273s-.168-.097-.286-.097a.433.433 0 0 0-.233.063.414.414 0 0 0-.153.176l-.001.003a.622.622 0 0 0-.054.255v.013-.001.1c.002.099.02.185.055.26s.086.132.15.173c.065.04.141.06.226.06.122 0 .22-.032.294-.096zm1.096-.15a.668.668 0 0 0 .055-.277v-.07a.651.651 0 0 0-.058-.268l.002.004a.413.413 0 0 0-.155-.18l-.002-.001a.421.421 0 0 0-.224-.063h-.008a.413.413 0 0 0-.39.248.646.646 0 0 0-.055.264v.014-.001.06c.001.103.019.193.056.272s.09.139.158.182a.435.435 0 0 0 .233.063c.088 0 .166-.021.233-.063s.12-.104.156-.183zm-.199-.607a.47.47 0 0 1 .068.274v.056c0 .121-.022.213-.067.276s-.107.095-.19.095h-.008a.222.222 0 0 1-.183-.096v-.001a.463.463 0 0 1-.069-.273v-.062a.46.46 0 0 1 .069-.267.22.22 0 0 1 .182-.095h.008a.22.22 0 0 1 .191.095z"/>
        </symbol>
        <symbol id="client2" viewBox="0 0 32 32">
            <path fill="#afb1b8" style="fill:var(--color3, #afb1b8)" d="M15.129 8.735h-.041c-.063-.004-.127-.005-.19-.007h-.137c-.12 0-.242.003-.363.009l-.014-.001-.014.001h.001a8.505 8.505 0 0 0-3.226.832l.051-.022-.13.063v6.684l.306-.104c.268-.092.554-.175.849-.252.73-.195 1.571-.313 2.437-.324h.007v.878a7.539 7.539 0 0 0-.339.01l.017-.001h-.025a9.848 9.848 0 0 0-1.948.304l.068-.015a9.488 9.488 0 0 0-2.289.898l.049-.025V9.09a8.778 8.778 0 0 1 2.288-.942l.062-.014a8.838 8.838 0 0 1 2.213-.286h.131c.154.004.305.011.446.021.372.026.741.085 1.103.176v.864a6.512 6.512 0 0 0-1.047-.16l-.022-.001-.022-.002c-.075-.006-.149-.013-.219-.013zm1.521.883c.192.015.39.022.591.022a9.49 9.49 0 0 0 2.395-.314l-.066.015a9.563 9.563 0 0 0 2.288-.898l-.049.025v8.42a8.778 8.778 0 0 1-2.288.942l-.062.014a8.8 8.8 0 0 1-2.213.285h-.056a6.772 6.772 0 0 1-1.672-.208l.047.01V9.456a7.036 7.036 0 0 0 1.086.163zm4.285.066-.305.103c-.185.068-.469.155-.756.233l-.093.022c-.761.204-1.635.322-2.536.325h-.002c-.199 0-.383-.005-.56-.017l-.244-.016v6.876l.209.018c.194.017.394.026.596.026a8.08 8.08 0 0 0 2.055-.272l-.057.013a8.325 8.325 0 0 0 1.612-.583l-.05.022.13-.063V9.685zM10.789 20.592a.45.45 0 0 0-.324-.138h-.017.001-.007a.519.519 0 0 0-.193.038l.003-.001a.444.444 0 0 0-.25.251l-.001.003a.493.493 0 0 0-.035.19v1.145a.541.541 0 0 0 .045.235.406.406 0 0 0 .272.235.666.666 0 0 0 .171.024.484.484 0 0 0 .475-.482v-.128h-.3v.109a.261.261 0 0 1-.018.097l.001-.002a.194.194 0 0 1-.043.065.208.208 0 0 1-.125.044l-.018.001a.152.152 0 0 1-.123-.062.268.268 0 0 1-.04-.142v-.012.001-1.068a.362.362 0 0 1 .037-.171.155.155 0 0 1 .147-.069h-.001.006a.16.16 0 0 1 .128.064c.031.04.05.092.05.147v.106h.296v-.122a.53.53 0 0 0-.038-.199l.001.004a.457.457 0 0 0-.1-.161zm1.778-.012a.52.52 0 0 0-.519-.094.47.47 0 0 0-.273.251l-.001.003a.543.543 0 0 0-.044.222v1.098a.529.529 0 0 0 .044.225.496.496 0 0 0 .453.283c.131 0 .25-.049.341-.129h-.001a.466.466 0 0 0 .113-.154.529.529 0 0 0 .044-.225v-1.109a.527.527 0 0 0-.045-.215l.001.003a.488.488 0 0 0-.113-.16zm-.14 1.48.001.017a.197.197 0 0 1-.06.142.217.217 0 0 1-.282-.001.197.197 0 0 1-.059-.16v.001-1.099l-.001-.017c0-.056.023-.106.06-.142a.217.217 0 0 1 .282.001c.037.036.06.086.06.142l-.001.018v-.001 1.099zm2.476.491v-2.08h-.288l-.378 1.101h-.005l-.381-1.101h-.285v2.079h.297v-1.265h.005l.291.894h.148l.293-.894h.005v1.265h.297zm1.688-1.934a.42.42 0 0 0-.168-.114.632.632 0 0 0-.204-.032h-.453v2.08h.296v-.812h.152l.025.001a.535.535 0 0 0 .246-.059l-.003.001a.436.436 0 0 0 .162-.157l.001-.002a.51.51 0 0 0 .068-.181c.01-.065.016-.141.016-.218v-.02.001c.003-.1-.007-.2-.029-.297a.447.447 0 0 0-.109-.191zm-.153.634a.252.252 0 0 1-.028.11l.001-.002a.163.163 0 0 1-.075.072h-.001a.296.296 0 0 1-.124.027h-.016.001-.135v-.707h.167a.29.29 0 0 1 .121.027l-.002-.001a.164.164 0 0 1 .069.076v.001a.29.29 0 0 1 .026.116v.139c0 .048.003.098 0 .143h-.003zm1.557-.78h-.243l-.458 2.08h.296l.087-.447h.404l.087.447h.296l-.469-2.08zm-.274 1.35.146-.754h.005l.145.754h-.296zm2.188-.097h-.005l-.447-1.253h-.285v2.08h.296V21.3h.006l.453 1.25h.279v-2.079h-.296v1.253zm1.811-1.253-.238.827h-.006l-.238-.827h-.313l.407 1.201v.879h.296v-.879l.407-1.201h-.314zM9.962 23.138h.143v.401h.097v-.401h.142v-.082h-.382v.082zm1.201-.082-.187.483h.103l.04-.11h.193l.041.11h.106l-.192-.483h-.103zm-.015.292.066-.179.066.179h-.131zm1.202.013h.112v.062a.19.19 0 0 1-.115.041h-.007a.123.123 0 0 1-.096-.046.204.204 0 0 1-.036-.115v-.011.001c0-.107.046-.161.139-.161l.01-.001c.048 0 .088.033.099.077v.001l.095-.019c-.021-.094-.088-.142-.205-.142h-.006a.246.246 0 0 0-.163.062.236.236 0 0 0-.069.187v-.001.011c0 .065.024.124.062.17a.233.233 0 0 0 .168.071h.016-.001.008a.289.289 0 0 0 .197-.077v-.19h-.209v.081zm1.212-.305h-.098v.483h.338v-.082h-.24v-.401zm1.025 0h-.098v.483h.098v-.483zm1.001.322-.198-.322h-.095v.483h.091v-.315l.194.315h.097v-.483h-.09v.323zm.906-.052h.241v-.082h-.241v-.106h.259v-.082h-.357v.483h.366v-.082h-.269v-.131zm2.196-.08h-.19v-.19h-.097v.483h.097v-.211h.19v.211h.097v-.483h-.097v.191zm.912.08h.241v-.082h-.241v-.106h.26v-.082h-.356v.483h.366v-.082h-.269v-.131zm1.235 0c.084-.013.127-.058.127-.134l.001-.014a.116.116 0 0 0-.048-.094.274.274 0 0 0-.122-.029l-.02.001h.001-.205v.483h.097v-.202h.027c.019 0 .037.004.053.011h-.001a.103.103 0 0 1 .034.035l.105.153h.116l-.059-.094a.345.345 0 0 0-.106-.115l-.001-.001zm-.098-.067h-.072v-.121h.076l.02-.001c.028 0 .055.005.08.013h-.002a.064.064 0 0 1 .021.047c0 .021-.01.039-.025.051a.26.26 0 0 1-.081.012l-.019-.001h.001zm1.03.067h.24v-.082h-.24v-.106h.26v-.082h-.357v.483h.366v-.082h-.269v-.131z"/>
        </symbol>
        <symbol id="client3" viewBox="0 0 32 32">
            <path fill="#afb1b8" style="fill:var(--color3, #afb1b8)" d="m12.876 19.595.009.002a.018.018 0 0 1 .007.005l.041.039a.341.341 0 0 1-.116.075.443.443 0 0 1-.153.027h-.011.001-.008a.427.427 0 0 1-.148-.026l.003.001a.318.318 0 0 1-.116-.071.307.307 0 0 1-.074-.107l-.001-.002a.35.35 0 0 1-.026-.136v-.011c0-.096.042-.182.108-.241a.367.367 0 0 1 .123-.071.5.5 0 0 1 .159-.025h.01c.049 0 .096.008.14.024l-.003-.001a.404.404 0 0 1 .111.063l-.034.042a.016.016 0 0 1-.009.007.024.024 0 0 1-.012.003h-.002a.033.033 0 0 1-.015-.004l-.018-.011-.026-.014a.318.318 0 0 0-.079-.025h-.002a.336.336 0 0 0-.057-.005h-.009a.322.322 0 0 0-.112.02l.002-.001a.24.24 0 0 0-.148.137.28.28 0 0 0-.021.107v.008c0 .039.008.076.022.11l-.001-.002a.246.246 0 0 0 .142.135.306.306 0 0 0 .106.018h.005c.02 0 .04-.001.06-.004h-.002a.243.243 0 0 0 .136-.058.032.032 0 0 1 .019-.007zm1.186-.197v.004a.33.33 0 0 1-.029.137l.001-.002a.288.288 0 0 1-.077.107.374.374 0 0 1-.119.07l-.002.001a.486.486 0 0 1-.316-.001l.004.001a.372.372 0 0 1-.121-.071.315.315 0 0 1-.077-.107l-.001-.002a.348.348 0 0 1 .001-.28l-.001.002a.322.322 0 0 1 .198-.177.486.486 0 0 1 .315.001l-.003-.001a.334.334 0 0 1 .199.178.357.357 0 0 1 .028.14zm-.108 0v-.006a.3.3 0 0 0-.02-.108l.001.002a.23.23 0 0 0-.14-.135h-.002a.371.371 0 0 0-.229.001l.003-.001a.228.228 0 0 0-.142.135l-.001.002a.327.327 0 0 0 0 .225l-.001-.002a.227.227 0 0 0 .141.135h.002a.367.367 0 0 0 .227 0 .232.232 0 0 0 .142-.135.306.306 0 0 0 .02-.111zm.917.117.011.025a.592.592 0 0 1 .026-.05l-.001.001.262-.414c.005-.007.01-.012.015-.013l.018-.002h.081v.674h-.092v-.54.001l-.264.42a.043.043 0 0 1-.015.015.04.04 0 0 1-.022.006h-.016a.04.04 0 0 1-.022-.006.036.036 0 0 1-.015-.015l-.272-.423v.541h-.089v-.672h.081a.1.1 0 0 1 .018.002h-.001a.03.03 0 0 1 .014.013l.268.415a.171.171 0 0 1 .013.023v.001zm.987-.033v.252h-.102v-.673h.229a.462.462 0 0 1 .128.015.257.257 0 0 1 .09.042.172.172 0 0 1 .051.065v.001a.197.197 0 0 1 .017.086v.004a.186.186 0 0 1-.074.149.257.257 0 0 1-.091.044.422.422 0 0 1-.116.016h-.009l-.124-.002zm0-.072h.124a.308.308 0 0 0 .08-.01.167.167 0 0 0 .058-.029.13.13 0 0 0 .047-.1v-.009a.11.11 0 0 0-.011-.048v.001a.137.137 0 0 0-.036-.046.217.217 0 0 0-.122-.037l-.017.001h.001-.124v.277zm1.379.325h-.083a.037.037 0 0 1-.021-.006.037.037 0 0 1-.013-.015l-.07-.163h-.351l-.072.163a.039.039 0 0 1-.035.022h-.082l.308-.674h.107l.312.674zm-.508-.25h.29l-.122-.274a.533.533 0 0 1-.023-.063l-.012.035-.011.029-.121.274zm.952-.421a.044.044 0 0 1 .015.012l.449.508v-.523h.092v.674h-.052a.065.065 0 0 1-.02-.004.066.066 0 0 1-.017-.012l-.448-.507v.024-.001.501h-.092v-.674h.054c.006 0 .013.001.018.003zm1.313.403v.267h-.103v-.267l-.284-.406h.094c.007 0 .014.002.02.006l.014.015.177.262.018.031.013.028.013-.029a.307.307 0 0 1 .017-.031l.175-.264a.058.058 0 0 1 .013-.014.037.037 0 0 1 .02-.007h.095l-.284.408zm-4.174-1.536c.045.005.09.009.136.012.693-.269 1.278-.71 1.684-1.266s.614-1.205.598-1.864l-.763-.663c.155.702.082 1.427-.21 2.095s-.792 1.252-1.445 1.687z"/>
            <path fill="#afb1b8" style="fill:var(--color3, #afb1b8)" d="m14.548 17.9.021.004c.697-.433 1.229-1.038 1.526-1.737s.346-1.459.141-2.182l-1.087-.944c.44.776.616 1.645.51 2.505s-.491 1.676-1.111 2.354zm3.686-2.309c-.185.724-.633 1.377-1.279 1.862-.176.134-.375.26-.585.368l-.023.011c.526-.134 1.009-.372 1.413-.694s.717-.721.915-1.165l-.441-.383z"/>
            <path fill="#afb1b8" style="fill:var(--color3, #afb1b8)" d="m18.061 15.484-.628-.545c-.012.622-.216 1.229-.589 1.76s-.904.964-1.536 1.256h.003c.141 0 .281-.008.421-.022.591-.209 1.112-.543 1.519-.97s.685-.935.81-1.479zm-3.423-2.842-.749-.651c-.669.225-1.245.62-1.652 1.134s-.625 1.122-.627 1.746c.002.689.269 1.358.759 1.9s1.172.927 1.941 1.094c.687-.727 1.089-1.625 1.148-2.564s-.228-1.87-.82-2.658zm5.153 2.742c-.003-.817-.378-1.601-1.043-2.179s-1.567-.904-2.508-.906h-.008c-.452 0-.886.075-1.291.214l.028-.008 4.584 3.983c.149-.325.237-.704.237-1.104z"/>
        </symbol>
        <symbol id="client4" viewBox="0 0 32 32">
            <path fill="#afb1b8" style="fill:var(--color2, #afb1b8)" d="M4.949 13.027h-.001c-.903 0-1.635.65-1.635 1.453v.001c0 .802.732 1.453 1.635 1.453h.001c.903 0 1.635-.651 1.635-1.453v-.001c0-.803-.732-1.453-1.635-1.453zm12.066-.464c-.003-1.114-.502-2.183-1.388-2.971s-2.088-1.232-3.342-1.234c-1.254.002-2.457.446-3.344 1.234s-1.387 1.856-1.389 2.971v6.145s9.462-.937 9.463-6.144v-.001zM0 20.725c.002.776.35 1.518.967 2.067s1.453.857 2.325.859c.872-.002 1.708-.311 2.325-.859s.965-1.291.967-2.066V16.45S0 17.102 0 20.725zm3.292.765a.942.942 0 0 1-.479-.129.792.792 0 0 1-.315-.339l-.002-.005a.681.681 0 0 1-.048-.447l-.001.005a.737.737 0 0 1 .236-.392.89.89 0 0 1 .436-.209l.005-.001a.98.98 0 0 1 .504.045l-.007-.002c.158.058.293.156.387.282s.145.274.145.425v.002a.688.688 0 0 1-.067.297l.002-.004a.775.775 0 0 1-.186.249l-.001.001a.869.869 0 0 1-.28.167.945.945 0 0 1-.33.059H3.29v-.003zm6.654-.421h-.635v.656H8.98v-1.606h1.046v.268h-.715v.415h.635v.267zm1.59-.11a.968.968 0 0 1-.084.416.642.642 0 0 1-.238.274l-.003.002a.653.653 0 0 1-.345.097h-.012.001a.641.641 0 0 1-.598-.366l-.002-.004a.932.932 0 0 1-.087-.397v-.014.001-.079c0-.158.029-.297.085-.417a.631.631 0 0 1 .588-.374h.012-.001a.638.638 0 0 1 .598.374c.057.12.086.258.086.416v.072zm-.335-.074c0-.168-.03-.296-.09-.384a.294.294 0 0 0-.245-.131h-.014.001-.013a.293.293 0 0 0-.244.13l-.001.001c-.06.086-.091.212-.091.379v.078c0 .164.03.291.09.381s.147.136.261.136h.013a.29.29 0 0 0 .242-.129l.001-.001c.059-.087.09-.215.09-.382v-.078zm1.408.418v-.009a.167.167 0 0 0-.066-.133.84.84 0 0 0-.238-.106 1.658 1.658 0 0 1-.282-.115l.01.005c-.183-.099-.274-.232-.274-.398 0-.087.024-.164.073-.232.049-.069.12-.122.211-.16s.195-.057.309-.057c.115 0 .217.021.307.063s.159.099.208.175c.05.075.075.162.075.258h-.331a.216.216 0 0 0-.069-.171.283.283 0 0 0-.195-.062.301.301 0 0 0-.189.052.16.16 0 0 0-.067.131v.004c0 .052.026.096.078.131s.131.068.233.099c.188.056.325.127.411.211s.129.188.129.313c0 .139-.053.248-.158.328s-.246.118-.424.118a.83.83 0 0 1-.338-.068.548.548 0 0 1-.232-.184l-.001-.002a.47.47 0 0 1-.079-.264v-.011.001h.332c0 .177.106.266.318.266.079 0 .14-.016.184-.047a.159.159 0 0 0 .066-.128v-.007zm1.766-.916h-.492v1.338h-.331v-1.338h-.485v-.268h1.308v.268zm1.156.642h-.635v.43h.745v.266h-1.076v-1.606h1.074v.268h-.744v.383h.635v.259zm.899.108h-.264v.588h-.331v-1.606h.597c.19 0 .336.043.439.127s.154.204.154.358c0 .11-.024.201-.072.275a.484.484 0 0 1-.212.173l-.003.001.347.656v.015h-.355l-.301-.587zm-.264-.268h.267a.275.275 0 0 0 .193-.063.227.227 0 0 0 .068-.163v-.013.001c0-.076-.021-.136-.065-.179s-.108-.065-.198-.065h-.266v.482zm2.005.29v.566h-.331v-1.606h.626c.12 0 .227.022.318.066s.163.107.212.189a.524.524 0 0 1 .074.277c0 .157-.054.282-.162.373s-.256.136-.447.136h-.29zm0-.268h.296c.088 0 .154-.021.2-.062.047-.041.07-.1.07-.177v-.012a.26.26 0 0 0-.07-.179.263.263 0 0 0-.192-.075h-.303v.504zm2.093.138h-.635v.43h.745v.266h-1.076v-1.606h1.074v.268h-.744v.383h.635v.259zm1.536-.642h-.492v1.338h-.331v-1.338h-.485v-.268H21.8v.268zm1.156.642h-.635v.43h.745v.266h-1.077v-1.606h1.074v.268h-.743v.383h.635v.259zm.899.108h-.264v.588h-.331v-1.606h.597c.19 0 .336.043.439.127s.154.204.154.358c0 .11-.024.201-.072.275a.484.484 0 0 1-.212.173l-.003.001.347.656v.015h-.355l-.301-.587zm-.264-.268h.267a.275.275 0 0 0 .193-.063.226.226 0 0 0 .069-.163v-.013.001a.239.239 0 0 0-.065-.179c-.043-.043-.108-.065-.197-.065h-.266v.482zm1.945.435v-.009a.169.169 0 0 0-.066-.134.84.84 0 0 0-.238-.106 1.658 1.658 0 0 1-.282-.115l.01.005c-.183-.099-.274-.232-.274-.398 0-.087.024-.164.073-.232.049-.069.12-.122.211-.16s.195-.057.309-.057c.115 0 .217.021.307.063s.159.099.208.175c.05.075.075.162.075.258h-.331a.216.216 0 0 0-.069-.171.283.283 0 0 0-.195-.062.301.301 0 0 0-.189.052.16.16 0 0 0-.068.131v.004c0 .052.026.096.079.131s.131.068.233.099c.188.056.325.127.411.211s.129.188.129.313c0 .139-.053.248-.158.328s-.247.118-.424.118a.83.83 0 0 1-.338-.068.548.548 0 0 1-.232-.184l-.001-.002a.47.47 0 0 1-.079-.264v-.011.001h.332c0 .177.106.266.318.266.079 0 .14-.016.184-.047a.159.159 0 0 0 .066-.128v-.006z"/>
        </symbol>
        <symbol id="client5" viewBox="0 0 32 32">
            <path fill="#afb1b8" style="fill:var(--color3, #afb1b8)" d="M8.078 20.448a.431.431 0 0 1 .111.295l.001.022a.435.435 0 0 1-.041.184l.001-.003a.484.484 0 0 1-.131.168l-.001.001a.788.788 0 0 1-.446.138l-.054-.002h.002-.877v-1.869h.859a.776.776 0 0 1 .479.125l-.003-.002c.056.043.1.097.128.157s.042.127.038.193a.408.408 0 0 1-.1.286.478.478 0 0 1-.258.146h-.003a.506.506 0 0 1 .296.16zm-1.029-.282h.367a.38.38 0 0 0 .233-.062.218.218 0 0 0 .062-.082l.001-.001a.197.197 0 0 0 .017-.082l-.001-.018v.001l.001-.016a.203.203 0 0 0-.018-.085l.001.001a.222.222 0 0 0-.061-.083.376.376 0 0 0-.211-.064l-.031.001h.001-.361v.491zm.637.717a.227.227 0 0 0 .067-.084l.001-.001a.216.216 0 0 0 .02-.09l-.001-.015v.001-.014a.222.222 0 0 0-.021-.093l.001.001a.25.25 0 0 0-.068-.086.399.399 0 0 0-.225-.068l-.026.001h.001-.385v.514h.39a.405.405 0 0 0 .246-.065zm2.146.369-.477-.731h-.18v.731h-.411v-1.869h.778a.81.81 0 0 1 .543.16l-.002-.002a.57.57 0 0 1 .186.416.562.562 0 0 1-.129.358l.001-.001a.645.645 0 0 1-.367.189H9.77l.509.747h-.447zm-.656-.985h.336c.233 0 .35-.094.35-.283v-.015a.259.259 0 0 0-.02-.1l.001.002a.276.276 0 0 0-.067-.097.385.385 0 0 0-.232-.077l-.034.001h.001-.34l.004.569zm2.903.608h-.819l-.145.376h-.431l.752-1.848h.466l.749 1.848h-.431l-.142-.376zm-.11-.282-.299-.789-.299.789h.598zm2.921.659h-.408l-.915-1.271v1.271h-.407v-1.869h.407l.915 1.279v-1.279h.408v1.869zm2.328-.447a.858.858 0 0 1-.369.33 1.269 1.269 0 0 1-.54.118h-.035.002-.726v-1.869h.76c.195 0 .381.042.548.119l-.008-.003a.838.838 0 0 1 .369.326 1.013 1.013 0 0 1 0 .981zm-.467-.045a.648.648 0 0 0 .18-.446.653.653 0 0 0-.18-.446.746.746 0 0 0-.513-.159h.002-.283v1.21h.283l.047.001c.176 0 .337-.06.466-.161l-.002.001zM12.334 8.986s5.264 1.82 5.153 4.453v4.454s-5.261-1.82-5.151-4.454l-.002-4.453zm9.843 7.865a7.638 7.638 0 0 1 3.345-1.128v-1.395c-1.383.488-2.557 1.374-3.345 2.523z"/>
            <path fill="#afb1b8" style="fill:var(--color3, #afb1b8)" d="M21.579 17.271c.814-1.5 2.224-2.658 3.942-3.235v-4.018s-7.497 2.592-7.339 6.342v6.341s.334-.116.86-.333c0-.203 0-.407.024-.613.155-1.741 1.059-3.354 2.513-4.485z"/>
            <path fill="#afb1b8" style="fill:var(--color3, #afb1b8)" d="M20.866 19.627c.039-.44.127-.875.262-1.298-.905.977-1.454 2.189-1.567 3.465-.011.12-.017.241-.02.365a21.05 21.05 0 0 0 1.563-.755l-.121.059a5.84 5.84 0 0 1-.141-1.295c0-.191.009-.379.026-.565l-.002.024zm.299.022a5.798 5.798 0 0 0 .099 1.701l-.007-.037c2.048-1.122 4.35-2.856 4.261-4.952v-.183c-1.464.15-2.833.736-3.897 1.667a5.68 5.68 0 0 0-.455 1.782l-.002.022z"/>
        </symbol>
        <symbol id="client6" viewBox="0 0 32 32">
            <path fill="#afb1b8" style="fill:var(--color3, #afb1b8)" d="M16.128 15.217a.882.882 0 0 1-.182-.602v.003-.871c0-.267.06-.469.182-.608s.329-.208.623-.207c.277 0 .474.059.59.177a.716.716 0 0 1 .174.52v.205h-.495v-.233c0-.062-.005-.123-.016-.183l.001.006a.195.195 0 0 0-.071-.12.28.28 0 0 0-.158-.048l-.022.001h.001l-.021-.001a.303.303 0 0 0-.168.051l.001-.001a.236.236 0 0 0-.082.131v.002a.949.949 0 0 0-.02.198v.018-.001 1.056a.539.539 0 0 0 .063.296.235.235 0 0 0 .097.071l.002.001a.259.259 0 0 0 .129.016h-.001a.267.267 0 0 0 .176-.048l-.001.001a.214.214 0 0 0 .074-.127v-.001c.011-.07.017-.141.015-.212v-.214h.495v.196a.792.792 0 0 1-.172.549l.001-.002c-.114.129-.308.194-.593.194s-.501-.069-.622-.213zm2.063.01c-.125-.136-.188-.333-.188-.594v-.916c0-.259.063-.454.188-.587s.334-.199.628-.198c.291 0 .499.066.625.198s.189.328.189.587v.915c0 .259-.063.457-.191.594s-.334.204-.622.204-.501-.069-.628-.203zm.858-.22a.507.507 0 0 0 .059-.271v-1.121l.001-.03a.503.503 0 0 0-.06-.238l.001.003a.234.234 0 0 0-.1-.072l-.002-.001a.274.274 0 0 0-.132-.016h.001a.29.29 0 0 0-.133.016l.002-.001a.232.232 0 0 0-.101.072.483.483 0 0 0-.059.267v-.001 1.126a.507.507 0 0 0 .059.271.332.332 0 0 0 .231.091.35.35 0 0 0 .13-.025l-.002.001a.32.32 0 0 0 .104-.067v-.005zm1.179-2.049h.533l.401 1.689.411-1.689h.519l.053 2.438h-.384l-.041-1.694-.396 1.694h-.308l-.41-1.701-.038 1.701h-.388l.048-2.438zm2.513 0h.831c.479 0 .718.231.718.692 0 .442-.252.663-.756.662h-.283v1.083h-.513l.003-2.438zm.71 1.042a.384.384 0 0 0 .282-.077.393.393 0 0 0 .074-.275v-.027a.778.778 0 0 0-.026-.2l.001.005a.177.177 0 0 0-.038-.067.211.211 0 0 0-.063-.048l-.001-.001a.527.527 0 0 0-.202-.04l-.028.001h.001-.199V14h.199zm1.578-1.042h.551l.565 2.438h-.478l-.112-.562h-.491l-.115.562h-.485l.565-2.438zm.471 1.594-.192-1.023-.192 1.023h.383zm1.101-1.594h.359l.687 1.391v-1.391h.426v2.438h-.341l-.691-1.452v1.452h-.44l.001-2.438zm2.469 1.508-.571-1.505h.481l.349.967.327-.967h.471l-.564 1.505v.93h-.492v-.93zm-12.15 1.996v.127h-.418v.991h-.175v-.991h-.421v-.127h1.014zm1.312 1.119h-.14a.06.06 0 0 1-.035-.011.059.059 0 0 1-.022-.025l-.121-.266h-.581l-.121.266a.067.067 0 0 1-.019.03.06.06 0 0 1-.035.011h-.138l.513-1.118h.178l.519 1.114zm-.849-.415h.484l-.205-.455a.725.725 0 0 1-.036-.1l-.001-.006-.019.059-.019.047-.203.454zm1.733.305a.582.582 0 0 0 .253-.033l.069-.027v-.251h-.207a.04.04 0 0 1-.026-.009.024.024 0 0 1-.008-.009c-.002-.003-.002-.006-.002-.01v-.087h.398v.429a.755.755 0 0 1-.211.09l-.005.001c-.042.011-.085.018-.128.023s-.095.007-.147.007h-.01a.779.779 0 0 1-.257-.043l.006.002a.616.616 0 0 1-.206-.118l.001.001a.558.558 0 0 1-.131-.174l-.001-.003a.545.545 0 0 1-.047-.225v-.015c0-.082.017-.16.048-.231l-.001.004c.029-.066.075-.127.132-.177s.128-.09.205-.116a.959.959 0 0 1 .539-.004.626.626 0 0 1 .192.102l-.049.069a.046.046 0 0 1-.039.021.057.057 0 0 1-.032-.009l-.053-.028.003.002a.387.387 0 0 0-.065-.029l-.003-.001a.65.65 0 0 0-.09-.024l-.004-.001a.785.785 0 0 0-.123-.01h-.013a.601.601 0 0 0-.196.032l.004-.001a.423.423 0 0 0-.151.089.378.378 0 0 0-.094.136l-.001.003a.505.505 0 0 0 .002.376l-.001-.004a.43.43 0 0 0 .252.229.577.577 0 0 0 .203.022zm1.634-.018h.56v.127h-.731v-1.118h.175l-.004.991zm1.143.128h-.175v-1.118h.175v1.118zm.652-1.113a.09.09 0 0 1 .027.02l.75.843-.001-.02.001-.021v.001-.833h.153v1.123h-.094a.072.072 0 0 1-.033-.007h.001a.097.097 0 0 1-.027-.021l-.749-.842v.869h-.147v-1.118h.091c.01 0 .02.002.029.005zm2.221-.006v.123h-.621v.369h.504v.119h-.504v.382h.621v.123h-.802v-1.115h.802zM6.389 9.557l7.787 1.909v6.689l-7.787-1.908v-6.69zm-.5-.571v7.586l8.785 2.154v-7.585L5.889 8.986z"/>
            <path fill="#afb1b8" style="fill:var(--color3, #afb1b8)" d="m10.597 22.247-8.786-2.156v-7.584l8.786 2.155v7.585zM6.035 9.47l7.685 1.885-3.269 2.823-7.686-1.886L6.034 9.47zm-.146-.484-4.078 3.52 8.786 2.155 4.077-3.521-8.785-2.155zm5.203 12.834 3.582-3.094-3.583-.878v3.973z"/>
        </symbol>
        <symbol id="clock" viewBox="0 0 32 32">
            <path fill="#212121" style="fill:var(--color1, #212121)" d="M31.296 15.301C31.295 6.849 24.441-.002 15.988 0S.685 6.855.687 15.308c.002 6.788 4.422 12.543 10.541 14.545l.108.031a.667.667 0 0 0 .529-.065.636.636 0 0 0 .283-.357l3.865-12.25a1.913 1.913 0 1 0-.852-3.63l.011-.005-5.106-5.107a.638.638 0 0 0-.902.902l5.103 5.109a1.847 1.847 0 0 0-.191.826c0 .602.283 1.137.723 1.48l.004.003-3.682 11.673C3.843 25.782.117 17.709 2.797 10.431S13.551-.573 20.829 2.108c7.278 2.681 11.004 10.754 8.323 18.032-1.345 3.581-4.003 6.406-7.374 7.938l-.088.036-.398-1.874a.639.639 0 0 0-1.05-.343l.001-.001-3.837 3.426a.637.637 0 0 0 .227 1.083l.005.001 4.899 1.563a.637.637 0 0 0 .818-.744l.001.004-.391-1.839c5.528-2.374 9.329-7.772 9.329-14.057v-.034.002zm-15.304-.637a.638.638 0 0 1 0 1.276.638.638 0 0 1 0-1.276zm2.1 14.864 2.184-1.948.603 2.84-2.787-.892z"/>
            <path fill="#2196f3" style="fill:var(--color2, #2196f3)" d="M15.354 3.185V4.46a.638.638 0 0 0 1.276 0V3.185a.638.638 0 1 0-1.276 0zM3.876 14.664a.638.638 0 0 0 0 1.276h1.275a.638.638 0 0 0 0-1.276H3.876zm24.232 1.275a.638.638 0 0 0 0-1.276h-1.275a.638.638 0 0 0 0 1.276h1.275z"/>
        </symbol>
        <symbol id="diagram" viewBox="0 0 32 32">
            <path fill="#2196f3" style="fill:var(--color2, #2196f3)" d="M15.036 13.43h.957v4.306h-.957V13.43zm3.827 1.914h.957v2.392h-.957v-2.392zm-7.654 1.435h.957v.957h-.957v-.957zM8.338 16.3h.957v1.435h-.957V16.3z"/>
            <path fill="#212121" style="fill:var(--color1, #212121)" d="M3.076 25.389h22.962c.793 0 1.435-.642 1.435-1.435v-1.913c0-.793-.642-1.435-1.435-1.435h-.478V8.676l2.717-2.574a1.443 1.443 0 1 0-.666-.675l-.004-.009-2.047 1.941V6.255c0-.793-.642-1.435-1.435-1.435H4.989c-.793 0-1.435.643-1.435 1.435v14.352h-.478c-.793 0-1.435.642-1.435 1.435v1.913c0 .793.643 1.435 1.435 1.435zM28.909 4.34a.478.478 0 1 1 0 .956.478.478 0 1 1 0-.956zM4.511 6.254c0-.264.214-.478.478-.478h19.136c.264 0 .478.214.478.478v2.009l-.957.909V7.211a.48.48 0 0 0-.479-.479H5.946a.479.479 0 0 0-.479.478v11.96c0 .264.215.478.479.478h17.221a.478.478 0 0 0 .479-.478v-8.682l.957-.907v11.024H4.511V6.254zm4.306 6.219h-.004a1.435 1.435 0 1 0 .998 2.466l1.663.834a.48.48 0 0 0 .571-.11l3.535-3.977 3.475 2.604a.48.48 0 0 0 .616-.035l3.02-2.861v7.297H6.426V7.688h16.265v2.388l-3.385 3.205-3.504-2.627a.474.474 0 0 0-.644.064l-3.583 4.032-1.339-.67c.009-.057.016-.115.018-.174 0-.793-.643-1.435-1.435-1.435zm.478 1.435a.478.478 0 1 1-.956 0 .478.478 0 1 1 .956 0zm2.87 7.654h4.784v.478a.478.478 0 0 1-.478.478h-3.827a.478.478 0 0 1-.478-.478v-.478zm-9.567.479c0-.264.214-.478.478-.478h8.133v.478c0 .793.643 1.435 1.435 1.435h3.827c.793 0 1.435-.642 1.435-1.435v-.478h8.133c.264 0 .478.214.478.478v1.913a.478.478 0 0 1-.478.478H3.077a.478.478 0 0 1-.478-.478v-1.913z"/>
            <path fill="none" stroke="#000" style="stroke:var(--color4, #000)" stroke-width=".41" d="M1.846.205h28.308v28.308H1.846z"/>
        </symbol>
        <symbol id="facebook1" viewBox="0 0 32 32">
            <path fill="#212121" style="fill:var(--color3, #afb1b8)" d="M21.329 5.313h2.921V.225C23.746.156 22.013 0 19.994 0c-4.212 0-7.097 2.649-7.097 7.519V12H8.249v5.688h4.648V32h5.699V17.689h4.46l.708-5.688h-5.169V8.082c.001-1.644.444-2.769 2.735-2.769z"/>
        </symbol>
       
        <symbol id="twit" viewBox="0 0 32 32">
            <path fill="#AFB1B8" style="fill:var(--color3, #AFB1B8)" d="M32 6.078c-1.19.522-2.458.868-3.78 1.036a6.523 6.523 0 0 0 2.886-3.626 13.11 13.11 0 0 1-4.16 1.588A6.574 6.574 0 0 0 22.154 3c-3.632 0-6.556 2.948-6.556 6.562 0 .52.044 1.02.152 1.496-5.454-.266-10.28-2.88-13.522-6.862a6.605 6.605 0 0 0-.898 3.316 6.57 6.57 0 0 0 2.914 5.452 6.479 6.479 0 0 1-2.964-.808v.072c0 3.188 2.274 5.836 5.256 6.446a6.548 6.548 0 0 1-1.72.216 5.8 5.8 0 0 1-1.242-.112c.85 2.598 3.262 4.508 6.13 4.57a13.182 13.182 0 0 1-8.134 2.798c-.538 0-1.054-.024-1.57-.09A18.469 18.469 0 0 0 10.064 29c12.072 0 18.672-10 18.672-18.668 0-.29-.01-.57-.024-.848A13.087 13.087 0 0 0 32 6.078z"/>
        </symbol>
        <symbol id="in" viewBox="0 0 32 32">
            <path fill="#fff" style="fill:var(--color5, #fff)" opacity=".1" d="M32 16v.02a15.9 15.9 0 0 1-4.686 11.293A15.902 15.902 0 0 1 16.021 32H16h.001-.02a15.9 15.9 0 0 1-11.293-4.686A15.902 15.902 0 0 1 .001 16.021V16v.001-.02A15.9 15.9 0 0 1 4.687 4.688 15.902 15.902 0 0 1 15.98.001h.021H16h.02a15.9 15.9 0 0 1 11.293 4.686A15.902 15.902 0 0 1 32 15.98v.021V16z"/>
            <path fill="#fff" style="fill:var(--color5, #fff)" d="M23.258 13.004c-.033-.773-.159-1.304-.337-1.764a3.57 3.57 0 0 0-.841-1.29l-.001-.001a3.583 3.583 0 0 0-1.263-.83l-.024-.008c-.463-.179-.991-.304-1.764-.337-.778-.037-1.025-.046-3.001-.046s-2.222.009-2.998.043c-.773.033-1.304.159-1.764.338a3.58 3.58 0 0 0-1.29.84l-.001.001c-.36.354-.645.784-.83 1.263l-.008.024c-.18.463-.304.991-.338 1.764-.037.778-.046 1.025-.046 3.001s.009 2.222.043 2.998c.034.773.159 1.304.338 1.764.194.505.48.935.84 1.29h.001c.354.36.784.645 1.263.83l.024.008c.463.18.992.305 1.764.338.776.034 1.023.043 2.998.043s2.222-.009 2.998-.043c.773-.033 1.304-.159 1.764-.337a3.741 3.741 0 0 0 2.12-2.104l.009-.025c.179-.463.304-.992.338-1.764.034-.776.042-1.023.042-2.998s-.003-2.222-.036-2.998zm-1.309 5.939c-.032.711-.151 1.094-.25 1.349a2.428 2.428 0 0 1-1.365 1.376l-.016.006c-.255.099-.641.218-1.349.249-.767.034-.997.043-2.938.043s-2.174-.009-2.938-.043c-.711-.031-1.094-.151-1.35-.25a2.237 2.237 0 0 1-.834-.542l-.001-.001a2.268 2.268 0 0 1-.538-.819l-.005-.016c-.099-.256-.218-.642-.249-1.35-.034-.767-.043-.998-.043-2.938s.009-2.175.043-2.938c.031-.711.151-1.094.249-1.35.122-.328.308-.608.545-.835l.001-.001c.229-.235.509-.42.821-.537l.016-.005c.255-.099.641-.218 1.349-.25.767-.033.998-.042 2.938-.042 1.943 0 2.174.008 2.938.042.711.031 1.094.151 1.35.25.315.116.602.301.835.543.241.236.426.52.543.836.099.255.218.641.249 1.349.034.767.043.997.043 2.938s-.009 2.167-.043 2.935z"/>
            <path fill="#fff" style="fill:var(--color5, #fff)" d="M16.027 12.265a3.737 3.737 0 0 0-3.737 3.737v.001a3.737 3.737 0 1 0 3.737-3.737h-.001zm0 6.16a2.424 2.424 0 1 1 0-4.848 2.424 2.424 0 1 1 0 4.848zm4.757-6.308a.873.873 0 0 1-1.746 0 .873.873 0 0 1 1.746 0z"/>
        </symbol>
        <symbol id="instagram" viewBox="0 0 32 32">
            <path fill="#afb1b8" style="fill:var(--color3, #afb1b8)" d="M31.969 9.408c-.075-1.7-.35-2.869-.744-3.882a7.806 7.806 0 0 0-1.851-2.838A7.867 7.867 0 0 0 26.542.844C25.523.45 24.36.175 22.66.1 20.947.019 20.403 0 16.059 0s-4.888.019-6.595.094c-1.7.075-2.869.35-3.882.744a7.803 7.803 0 0 0-2.838 1.85A7.867 7.867 0 0 0 .9 5.52C.506 6.539.231 7.702.156 9.402c-.081 1.713-.1 2.257-.1 6.601s.019 4.888.094 6.595c.075 1.7.35 2.869.744 3.882a7.895 7.895 0 0 0 1.85 2.838 7.867 7.867 0 0 0 2.832 1.844c1.019.394 2.182.669 3.882.744 1.706.075 2.25.094 6.595.094s4.888-.019 6.595-.094c1.7-.075 2.869-.35 3.882-.744a8.184 8.184 0 0 0 4.682-4.682c.394-1.019.669-2.182.744-3.882.075-1.707.094-2.251.094-6.595s-.006-4.888-.081-6.595zm-2.882 13.065c-.069 1.563-.331 2.407-.55 2.969a5.31 5.31 0 0 1-3.038 3.038c-.563.219-1.413.481-2.969.55-1.688.075-2.194.094-6.464.094s-4.782-.019-6.464-.094c-1.563-.069-2.407-.331-2.969-.55a4.926 4.926 0 0 1-1.838-1.194 4.974 4.974 0 0 1-1.194-1.838c-.219-.563-.481-1.413-.55-2.969-.075-1.688-.094-2.194-.094-6.464s.019-4.782.094-6.464c.069-1.563.331-2.407.55-2.969a4.868 4.868 0 0 1 1.2-1.838A4.974 4.974 0 0 1 6.639 3.55c.563-.219 1.413-.481 2.969-.55 1.688-.075 2.194-.094 6.464-.094 4.276 0 4.782.019 6.464.094 1.563.069 2.407.331 2.969.55a4.914 4.914 0 0 1 1.838 1.194 4.974 4.974 0 0 1 1.194 1.838c.219.563.481 1.413.55 2.969.075 1.688.094 2.194.094 6.464s-.019 4.77-.094 6.458z"/>
            <path fill="#afb1b8" style="fill:var(--color3, #afb1b8)" d="M16.059 7.783c-4.538 0-8.22 3.682-8.22 8.22s3.682 8.22 8.22 8.22c4.539 0 8.22-3.682 8.22-8.22s-3.682-8.22-8.22-8.22zm0 13.552a5.333 5.333 0 0 1 0-10.664 5.333 5.333 0 0 1 0 10.664zM26.524 7.458a1.919 1.919 0 1 1-3.838 0 1.919 1.919 0 0 1 3.838 0z"/>
        </symbol>
       
        <symbol id="linkedin1" viewBox="0 0 32 32">
            <path fill="#afb1b8" style="fill:var(--color3, #afb1b8)" d="M31.992 32v-.001H32V20.263c0-5.741-1.236-10.164-7.948-10.164-3.227 0-5.392 1.771-6.276 3.449h-.093v-2.913h-6.364v21.364h6.627V21.42c0-2.785.528-5.479 3.977-5.479 3.399 0 3.449 3.179 3.449 5.657v10.401h6.62zM.528 10.636h6.635V32H.528V10.636zM3.843 0C1.722 0 0 1.721 0 3.843s1.721 3.879 3.843 3.879c2.121 0 3.843-1.757 3.843-3.879A3.846 3.846 0 0 0 3.843 0z"/>
        </symbol>
        <symbol id="mail" viewBox="0 0 32 32">
            <path fill="#757575" style="fill:var(--color6, #757575)" d="M29 4H3C1.346 4 0 5.346 0 7v18c0 1.654 1.346 3 3 3h26c1.654 0 3-1.346 3-3V7c0-1.654-1.346-3-3-3zm0 2c.136 0 .266.028.384.078L16 17.678 2.616 6.078A.971.971 0 0 1 3 6h26zm0 20H3a1 1 0 0 1-1-1V8.19l13.344 11.566a.997.997 0 0 0 1.313-.001l-.001.001L30 8.19V25a1 1 0 0 1-1 1z"/>
        </symbol>
        <symbol id="tel" viewBox="0 0 32 32">
            <path fill="#757575" style="fill:var(--color6, #757575)" d="M23 0H9C7.346 0 6 1.346 6 3v26c0 1.654 1.346 3 3 3h14c1.654 0 3-1.346 3-3V3c0-1.654-1.346-3-3-3zM9 2h14a1 1 0 0 1 1 1v21H8V3a1 1 0 0 1 1-1zm14 28H9a1 1 0 0 1-1-1v-3h16v3a1 1 0 0 1-1 1z"/>
        </symbol>
        <symbol id="tw" viewBox="0 0 32 32">
            <path fill="#fff" style="fill:var(--color5, #fff)" opacity=".1" d="M32 16v.02a15.9 15.9 0 0 1-4.686 11.293A15.902 15.902 0 0 1 16.021 32H16h.001-.02a15.9 15.9 0 0 1-11.293-4.686A15.902 15.902 0 0 1 .001 16.021V16v.001-.02A15.9 15.9 0 0 1 4.687 4.688 15.902 15.902 0 0 1 15.98.001h.021H16h.02a15.9 15.9 0 0 1 11.293 4.686A15.902 15.902 0 0 1 32 15.98v.021V16z"/>
            <path fill="#fff" style="fill:var(--color5, #fff)" d="M23.269 23.273h.004v-5.335c0-2.609-.562-4.62-3.613-4.62-1.466 0-2.451.804-2.852 1.568h-.042v-1.324h-2.893v9.711h3.012v-4.808c0-1.266.24-2.491 1.808-2.491 1.545 0 1.567 1.445 1.567 2.572v4.728h3.009zM8.967 13.562h3.016v9.711H8.967v-9.711zm1.507-4.835c-.965 0-1.747.782-1.747 1.747 0 .964.783 1.763 1.747 1.763s1.746-.799 1.746-1.763c0-.964-.782-1.746-1.746-1.747z"/>
        </symbol>
    </defs>
</svg>